<svg width="14" height="14" viewBox="0 0 14 14" fill="none" xmlns="http://www.w3.org/2000/svg">
<path d="M6.99994 12.25C6.75473 12.25 6.55208 12.0704 6.52 11.8375L6.51558 11.7727L6.51583 3.38275L3.45258 6.4139C3.26384 6.60069 2.95716 6.60134 2.7676 6.41535C2.59528 6.24628 2.57906 5.98116 2.71935 5.79402L2.76613 5.74039L6.65645 1.89039L6.66665 1.88095C6.67711 1.87118 6.68801 1.86186 6.69932 1.85302L6.65645 1.89039C6.67519 1.87184 6.6951 1.85513 6.71594 1.84025C6.72903 1.83126 6.74262 1.82253 6.75666 1.81448C6.7879 1.79629 6.82059 1.7822 6.85421 1.7718C6.86606 1.7683 6.87816 1.76504 6.89044 1.76225C6.89982 1.75997 6.90934 1.7581 6.91891 1.75652C6.92928 1.75493 6.93965 1.75355 6.95012 1.75249C6.96063 1.7513 6.97138 1.75057 6.98213 1.75018C6.98809 1.7501 6.994 1.75 6.99994 1.75L7.01602 1.75014C7.02795 1.75054 7.03986 1.75136 7.05174 1.75262L6.99994 1.75C7.02759 1.75 7.05471 1.75229 7.0811 1.75667C7.09313 1.75863 7.1052 1.76112 7.11719 1.76406C7.12671 1.76641 7.13606 1.76901 7.14529 1.77187C7.15626 1.77524 7.16731 1.77909 7.17823 1.78336C7.18951 1.78778 7.20053 1.79257 7.21133 1.79774C7.2196 1.80165 7.22812 1.80604 7.23653 1.81069C7.25231 1.81946 7.26712 1.82875 7.28135 1.83878C7.28358 1.84036 7.28604 1.84212 7.28848 1.84392C7.3101 1.85984 7.32917 1.87633 7.34683 1.89419L11.2338 5.74036C11.4226 5.92713 11.422 6.22933 11.2324 6.41533C11.0601 6.58442 10.791 6.59927 10.6017 6.46025L10.5474 6.41393L7.48475 3.38333L7.48429 11.7727C7.48429 12.0363 7.26744 12.25 6.99994 12.25Z" fill="#50D1AA"/>
</svg>
