<svg width="18" height="18" viewBox="0 0 18 18" fill="none" xmlns="http://www.w3.org/2000/svg">
<rect width="18" height="18" rx="9" fill="#FF6471" fill-opacity="0.24"/>
<path d="M9.00006 3.75C9.24527 3.75 9.44792 3.92955 9.48 4.16251L9.48442 4.22727L9.48417 12.6172L12.5474 9.5861C12.7362 9.39931 13.0428 9.39866 13.2324 9.58465C13.4047 9.75372 13.4209 10.0188 13.2807 10.206L13.2339 10.2596L9.34355 14.1096L9.33335 14.119C9.32289 14.1288 9.31199 14.1381 9.30068 14.147L9.34355 14.1096C9.32481 14.1282 9.3049 14.1449 9.28406 14.1597C9.27097 14.1687 9.25738 14.1775 9.24334 14.1855C9.2121 14.2037 9.17941 14.2178 9.14579 14.2282C9.13394 14.2317 9.12184 14.235 9.10956 14.2378C9.10018 14.24 9.09066 14.2419 9.08109 14.2435C9.07072 14.2451 9.06035 14.2465 9.04988 14.2475C9.03937 14.2487 9.02862 14.2494 9.01787 14.2498C9.01191 14.2499 9.006 14.25 9.00006 14.25L8.98398 14.2499C8.97205 14.2495 8.96014 14.2486 8.94826 14.2474L9.00006 14.25C8.97241 14.25 8.94529 14.2477 8.9189 14.2433C8.90687 14.2414 8.8948 14.2389 8.88281 14.2359C8.87329 14.2336 8.86394 14.231 8.85471 14.2281C8.84374 14.2248 8.83269 14.2209 8.82177 14.2166C8.81049 14.2122 8.79947 14.2074 8.78867 14.2023C8.7804 14.1983 8.77188 14.194 8.76347 14.1893C8.74769 14.1805 8.73288 14.1712 8.71865 14.1612C8.71642 14.1596 8.71396 14.1579 8.71152 14.1561C8.6899 14.1402 8.67083 14.1237 8.65317 14.1058L4.76616 10.2596C4.5774 10.0729 4.57803 9.77067 4.76757 9.58467C4.93989 9.41558 5.209 9.40073 5.39832 9.53975L5.45255 9.58607L8.51525 12.6167L8.51571 4.22727C8.51571 3.96368 8.73256 3.75 9.00006 3.75Z" fill="#FF7CA3"/>
</svg>
