<svg width="24" height="24" viewBox="0 0 24 24" fill="none" xmlns="http://www.w3.org/2000/svg">
<path d="M9.59149 14.4563L9.91127 14.4576C14.5557 14.4981 17.1835 15.4361 17.1835 17.9983C17.1835 20.5061 14.665 21.4736 10.2236 21.5546L9.59149 21.5603C4.74715 21.5603 2.00049 20.6394 2.00049 18.0183C2.00049 15.3937 4.75808 14.4563 9.59149 14.4563ZM9.59149 15.9563C5.57414 15.9563 3.50049 16.6612 3.50049 18.0183C3.50049 19.3667 5.56916 20.0603 9.59149 20.0603C13.6091 20.0603 15.6835 19.3552 15.6835 17.9983C15.6835 16.6505 13.6129 15.9563 9.59149 15.9563ZM17.5872 13.7481C18.1677 13.7876 18.7449 13.8708 19.2996 13.9938C20.4877 14.2301 21.371 14.6713 21.7757 15.5204C22.0745 16.1491 22.0745 16.8806 21.7757 17.5092C21.3733 18.3563 20.4992 18.7942 19.3044 19.04C18.8987 19.1234 18.5021 18.8622 18.4187 18.4565C18.3352 18.0507 18.5965 17.6542 19.0022 17.5707C19.771 17.4126 20.2827 17.1562 20.4209 16.8654C20.5261 16.6441 20.5261 16.3856 20.4213 16.165C20.2822 15.8732 19.7678 15.6163 18.9912 15.4616C18.4938 15.3515 17.991 15.279 17.4854 15.2446C17.0721 15.2165 16.7599 14.8587 16.788 14.4455C16.8161 14.0322 17.1739 13.72 17.5872 13.7481ZM9.59149 2.49976C12.4395 2.49976 14.7265 4.78636 14.7265 7.63376C14.7265 10.482 12.4397 12.7688 9.59149 12.7688C6.74341 12.7688 4.45749 10.4821 4.45749 7.63376C4.45749 4.78622 6.74359 2.49976 9.59149 2.49976ZM16.0202 3.56936C18.2551 3.56936 20.0672 5.38183 20.0672 7.61636C20.0672 9.85157 18.2554 11.6634 16.0202 11.6634C15.606 11.6634 15.2702 11.3276 15.2702 10.9134C15.2702 10.4991 15.606 10.1634 16.0202 10.1634C17.427 10.1634 18.5672 9.02314 18.5672 7.61636C18.5672 6.21019 17.4266 5.06936 16.0202 5.06936C15.606 5.06936 15.2702 4.73357 15.2702 4.31936C15.2702 3.90514 15.606 3.56936 16.0202 3.56936ZM9.59149 3.99976C7.57207 3.99976 5.95749 5.6146 5.95749 7.63376C5.95749 9.65379 7.57195 11.2688 9.59149 11.2688C11.6113 11.2688 13.2265 9.65354 13.2265 7.63376C13.2265 5.61484 11.6111 3.99976 9.59149 3.99976Z" fill="#65B0F6"/>
</svg>
