<svg width="20" height="20" viewBox="0 0 20 20" fill="none" xmlns="http://www.w3.org/2000/svg">
<path d="M8.49776 4.7606C8.58545 4.93485 8.63817 5.12392 8.65332 5.32102L9.04185 10.8095C9.04706 10.8847 9.08269 10.9548 9.14085 11.0042C9.18448 11.0413 9.23808 11.0645 9.29801 11.0712L9.35991 11.0724L14.9341 10.7366C15.3867 10.71 15.8305 10.8675 16.1604 11.1719C16.4902 11.4763 16.6768 11.9004 16.6744 12.3912C16.4265 16.0037 13.773 19.0237 10.159 19.8065C6.54503 20.5893 2.83611 18.9474 1.05781 15.7848C0.582292 14.9695 0.261779 14.0778 0.113798 13.1749L0.0664268 12.8359C0.0253023 12.5821 0.00319023 12.3257 0 12.0795L0.00311369 11.8372C0.0133983 8.06546 2.66156 4.80403 6.38809 3.92434L6.64383 3.86807L6.7814 3.84532C7.502 3.74681 8.21097 4.12453 8.49776 4.7606ZM7.01643 5.27813L6.93217 5.28772L6.70369 5.33933C3.73526 6.05477 1.6062 8.61031 1.48796 11.621L1.4828 11.8661C1.47569 12.0525 1.4825 12.2392 1.50499 12.4378L1.53277 12.6408C1.63212 13.495 1.90795 14.3206 2.34914 15.0772C3.81632 17.6863 6.86669 19.0367 9.839 18.3929C12.8113 17.7491 14.9936 15.2653 15.1958 12.3414C15.1958 12.2974 15.1774 12.2552 15.1446 12.225C15.1228 12.2049 15.0959 12.1912 15.0675 12.1851L15.024 12.1817L9.45904 12.5169C8.98938 12.5503 8.52549 12.3992 8.17003 12.0971C7.81456 11.7951 7.59684 11.3669 7.56522 10.91L7.17702 5.42617C7.17632 5.41708 7.17385 5.40822 7.15682 5.37299C7.1315 5.31695 7.07648 5.28131 7.01643 5.27813ZM11.423 0.00105033C15.7084 0.122269 19.3029 3.20162 19.9904 7.34084L20 7.4567L19.9977 7.65855C19.9737 7.95621 19.8538 8.23931 19.6545 8.46677C19.4041 8.75241 19.0477 8.92862 18.6588 8.95674L12.0133 9.39005C11.1615 9.43818 10.4295 8.80509 10.3741 7.97348L9.92986 1.44914L9.9349 1.30295L9.95698 1.13824C10.0162 0.84619 10.1684 0.579378 10.3925 0.376428C10.6739 0.121564 11.0474 -0.0133911 11.423 0.00105033ZM11.4113 1.44902L11.8511 7.87814C11.8537 7.91719 11.888 7.94688 11.9214 7.94502L18.5182 7.51352L18.4854 7.33352C17.8318 4.0802 15.0119 1.66443 11.6287 1.45932L11.4113 1.44902Z" fill="#EA7C69"/>
</svg>
