<svg width="20" height="20" viewBox="0 0 20 20" fill="none" xmlns="http://www.w3.org/2000/svg">
<path d="M7.73049 0.788355C9.00049 -0.220645 10.7805 -0.260645 12.0895 0.668355L12.2505 0.788355L18.3395 5.65935C19.0095 6.17835 19.4205 6.94936 19.4905 7.78835L19.5005 7.98935V16.0984C19.5005 18.1884 17.8495 19.8884 15.7805 19.9984H13.7905C12.8395 19.9794 12.0705 19.2394 12.0005 18.3094L11.9905 18.1684V15.3094C11.9905 14.9984 11.7595 14.7394 11.4505 14.6884L11.3605 14.6784H8.68949C8.37049 14.6884 8.11049 14.9184 8.07049 15.2184L8.06049 15.3094V18.1594C8.06049 18.2184 8.04949 18.2884 8.04049 18.3384L8.03049 18.3594L8.01949 18.4284C7.90049 19.2794 7.20049 19.9284 6.33049 19.9894L6.20049 19.9984H4.41049C2.32049 19.9984 0.610488 18.3594 0.500488 16.2984V7.98935C0.509488 7.13835 0.880488 6.34835 1.50049 5.79835L7.73049 0.788355ZM11.3805 1.87835C10.6205 1.26835 9.54049 1.23935 8.74049 1.76835L8.58949 1.87835L2.50949 6.77936C2.16049 7.03835 1.95049 7.42836 1.90049 7.83836L1.88949 7.99835V16.0984C1.88949 17.4284 2.92949 18.5184 4.25049 18.5984H6.20049C6.42049 18.5984 6.61049 18.4494 6.63949 18.2394L6.66049 18.0594L6.67049 18.0084V15.3094C6.67049 14.2394 7.49049 13.3694 8.54049 13.2884H11.3605C12.4295 13.2884 13.2995 14.1094 13.3805 15.1594V18.1684C13.3805 18.3784 13.5305 18.5594 13.7305 18.5984H15.5895C16.9295 18.5984 18.0195 17.5694 18.0995 16.2584L18.1105 16.0984V7.99835C18.0995 7.56936 17.9205 7.16835 17.6105 6.86935L17.4805 6.75835L11.3805 1.87835Z" fill="#EA7C69"/>
</svg>
