<svg width="212" height="212" viewBox="0 0 212 212" fill="none" xmlns="http://www.w3.org/2000/svg">
<path d="M106 91L106 121" stroke="#91A7B7" stroke-width="2"/>
<line x1="121" y1="107" x2="91" y2="107" stroke="#91A7B7" stroke-width="2"/>
<line x1="212" y1="107" x2="182" y2="107" stroke="#91A7B7" stroke-width="4"/>
<line x1="197.799" y1="53" x2="171.818" y2="68" stroke="#91A7B7" stroke-width="2"/>
<line x1="158.982" y1="14.317" x2="143.982" y2="40.2978" stroke="#91A7B7" stroke-width="2"/>
<line x1="133.046" y1="3.45174" x2="125.281" y2="32.4295" stroke="#91A7B7"/>
<line x1="78.2709" y1="3.54649" x2="86.0355" y2="32.5243" stroke="#91A7B7"/>
<line x1="30.9729" y1="31.5765" x2="52.1861" y2="52.7897" stroke="#91A7B7"/>
<line x1="106" y1="-2.62268e-07" x2="106" y2="30" stroke="#91A7B7" stroke-width="4"/>
<line x1="53.0001" y1="14.2013" x2="68.0001" y2="40.1821" stroke="#91A7B7" stroke-width="2"/>
<line x1="30.7749" y1="31.253" x2="51.9881" y2="52.4662" stroke="#91A7B7"/>
<line x1="3.60231" y1="78.7585" x2="32.5801" y2="86.5231" stroke="#91A7B7"/>
<line x1="3.91405" y1="134.046" x2="32.8918" y2="126.282" stroke="#91A7B7"/>
<line x1="14.183" y1="53.1157" x2="40.1637" y2="68.1157" stroke="#91A7B7" stroke-width="2"/>
<line x1="3.57643" y1="79.0174" x2="32.5542" y2="86.782" stroke="#91A7B7"/>
<line x1="3.92992" y1="133.723" x2="32.9077" y2="125.958" stroke="#91A7B7"/>
<line x1="31.68" y1="181.483" x2="52.8932" y2="160.27" stroke="#91A7B7"/>
<line x1="30" y1="107" x2="1.74846e-07" y2="107" stroke="#91A7B7" stroke-width="4"/>
<line x1="40.1821" y1="144" x2="14.2014" y2="159" stroke="#91A7B7" stroke-width="2"/>
<line x1="67.9817" y1="171.934" x2="52.9818" y2="197.914" stroke="#91A7B7" stroke-width="2"/>
<line x1="85.941" y1="179.25" x2="78.1764" y2="208.228" stroke="#91A7B7"/>
<line x1="125.376" y1="179.345" x2="133.141" y2="208.323" stroke="#91A7B7"/>
<line x1="159.666" y1="160.27" x2="180.88" y2="181.483" stroke="#91A7B7"/>
<line x1="106" y1="182" x2="106" y2="212" stroke="#91A7B7" stroke-width="4"/>
<line x1="144" y1="171.818" x2="159" y2="197.799" stroke="#91A7B7" stroke-width="2"/>
<line x1="171.8" y1="144.116" x2="197.78" y2="159.116" stroke="#91A7B7" stroke-width="2"/>
<line x1="179.375" y1="126.122" x2="208.353" y2="133.887" stroke="#91A7B7"/>
<line x1="179.729" y1="86.6179" x2="208.706" y2="78.8533" stroke="#91A7B7"/>
<line x1="160.373" y1="52.7896" x2="181.587" y2="31.5764" stroke="#91A7B7"/>
</svg>
