<svg width="35" height="31" viewBox="0 0 35 31" fill="none" xmlns="http://www.w3.org/2000/svg">
<g clip-path="url(#clip0)">
<path d="M18.2674 3.73296C19.0672 2.82977 20.0395 2.09635 21.127 1.57601C22.2145 1.05568 23.395 0.758988 24.5988 0.703466C25.8026 0.647945 27.0053 0.834718 28.1359 1.25275C29.2665 1.67079 30.302 2.31161 31.1812 3.13735C32.0605 3.9631 32.7656 4.95703 33.2551 6.06043C33.7445 7.16382 34.0082 8.35431 34.0308 9.56155C34.0533 10.7688 33.8341 11.9683 33.3861 13.0893C32.9382 14.2102 32.2706 15.2299 31.4227 16.0879L18.1691 29.495C18.0726 29.5927 17.9578 29.6702 17.8312 29.7231C17.7047 29.776 17.5689 29.8032 17.4317 29.8032C17.2946 29.8032 17.1588 29.776 17.0322 29.7231C16.9057 29.6702 16.7908 29.5927 16.6943 29.495L3.44073 16.0879C1.83312 14.4617 0.901439 12.2848 0.833902 9.99686C0.766364 7.70895 1.568 5.48064 3.07688 3.76207C6.65729 -0.317447 12.9963 -0.331309 16.5961 3.73296L17.4317 4.67556L18.2674 3.73296V3.73296ZM30.2288 5.13438C29.5787 4.39393 28.7789 3.8004 27.8825 3.39314C26.9861 2.98587 26.0135 2.77417 25.0292 2.77207C24.0449 2.76998 23.0715 2.97753 22.1733 3.38097C21.2752 3.78441 20.4729 4.37453 19.8196 5.1122L18.2065 6.93225C18.1091 7.04218 17.9896 7.13018 17.8558 7.19045C17.7221 7.25072 17.577 7.28188 17.4304 7.28188C17.2837 7.28188 17.1387 7.25072 17.0049 7.19045C16.8711 7.13018 16.7516 7.04218 16.6542 6.93225L15.0425 5.1122C14.428 4.41169 13.6793 3.84208 12.8408 3.43723C12.0023 3.03238 11.0911 2.80053 10.1614 2.75548C9.23168 2.71043 8.30242 2.85309 7.42883 3.17498C6.55524 3.49687 5.75514 3.99142 5.07608 4.62925C4.39701 5.26708 3.85284 6.03517 3.47589 6.88788C3.09894 7.74059 2.89691 8.66052 2.8818 9.59301C2.86669 10.5255 3.03881 11.4515 3.38794 12.316C3.73707 13.1806 4.25608 13.9659 4.91412 14.6255L17.4317 27.2855L29.948 14.6255C31.1859 13.3734 31.9035 11.6971 31.9556 9.93542C32.0077 8.17369 31.3906 6.4578 30.2288 5.13438V5.13438Z" fill="#F7B548"/>
</g>
<defs>
<clipPath id="clip0">
<rect width="34.8634" height="30.08" fill="white"/>
</clipPath>
</defs>
</svg>
