<svg width="14" height="14" viewBox="0 0 14 14" fill="none" xmlns="http://www.w3.org/2000/svg">
<path d="M3.32223 0.87682C4.49376 0.49998 5.76145 0.635586 6.82216 1.23745L6.99776 1.34282L7.17651 1.23686C8.18215 0.667493 9.37509 0.515351 10.4977 0.824114L10.6748 0.876859C13.1233 1.66516 14.2196 4.33863 13.3959 6.89673C12.983 8.0867 12.3057 9.1656 11.4118 10.0549C10.1953 11.2363 8.85429 12.2796 7.41471 13.1648L7.26188 13.2598C7.1067 13.3562 6.91057 13.3579 6.75379 13.264L6.59008 13.166C5.14852 12.2796 3.80751 11.2363 2.58686 10.0508C1.69706 9.1656 1.01981 8.0867 0.603376 6.8863C-0.217261 4.33708 0.874507 1.66488 3.32223 0.87682ZM6.58326 2.23614C5.71387 1.64189 4.62237 1.48222 3.62119 1.80426C1.72514 2.4147 0.865548 4.51863 1.52821 6.57753C1.89267 7.62779 2.4902 8.57968 3.27071 9.35619C4.436 10.4879 5.72049 11.4872 7.09619 12.3332L7.00101 12.2732L7.31291 12.077C8.40186 11.3739 9.4275 10.5761 10.3759 9.6947L10.7279 9.36029C11.5126 8.57968 12.1101 7.62779 12.4711 6.58795C13.1366 4.5206 12.2733 2.41519 10.3762 1.80442C9.325 1.46717 8.1775 1.66034 7.29082 2.32413C7.12059 2.45157 6.88731 2.45404 6.71441 2.33021L6.58326 2.23614ZM9.58033 3.32245C10.4613 3.60363 11.086 4.39235 11.164 5.31898C11.1865 5.58709 10.9873 5.82272 10.719 5.84525C10.4506 5.86779 10.2148 5.66871 10.1922 5.4006C10.1472 4.86531 9.78777 4.41153 9.2836 4.25061C9.02709 4.16873 8.88557 3.89459 8.96751 3.63829C9.04945 3.38198 9.32382 3.24058 9.58033 3.32245Z" fill="#ABBBC2"/>
</svg>
