<svg width="16" height="12" viewBox="0 0 16 12" fill="none" xmlns="http://www.w3.org/2000/svg">
<path d="M0.874101 6.16828C0.786049 6.06909 0.6622 6.00894 0.529799 6.00106C0.397398 5.99318 0.267292 6.03823 0.168101 6.12628C0.0689097 6.21433 0.00875993 6.33818 0.000883402 6.47058C-0.00699313 6.60298 0.0380487 6.73309 0.126101 6.83228L4.1261 11.3323C4.17133 11.3834 4.22653 11.4246 4.28832 11.4536C4.3501 11.4825 4.41715 11.4985 4.48535 11.5006C4.55354 11.5027 4.62144 11.4907 4.68486 11.4656C4.74827 11.4404 4.80587 11.4025 4.8541 11.3543L15.3541 0.854278C15.448 0.760524 15.5008 0.633313 15.5009 0.500631C15.501 0.367949 15.4484 0.240665 15.3546 0.146778C15.2608 0.0528916 15.1336 9.38933e-05 15.001 1.25111e-07C14.8683 -9.36431e-05 14.741 0.052524 14.6471 0.146278L4.5201 10.2713L0.873101 6.16828H0.874101Z" fill="white"/>
</svg>
