<svg width="40" height="40" viewBox="0 0 40 40" fill="none" xmlns="http://www.w3.org/2000/svg">
<path d="M18.6402 5C21.3206 5.00045 23.9518 5.71908 26.2602 7.08113C28.5687 8.44318 30.47 10.3989 31.7664 12.7448C33.0628 15.0908 33.707 17.7412 33.6318 20.4205C33.5567 23.0998 32.765 25.71 31.3392 27.9796C29.9133 30.2491 27.9054 32.0952 25.5242 33.3258C23.1431 34.5563 20.4757 35.1263 17.7996 34.9766C15.1234 34.8268 12.5363 33.9627 10.3073 32.4742C8.07837 30.9856 6.28895 28.927 5.12525 26.5125C5.04118 26.3391 4.99834 26.1487 5.00005 25.956C5.00176 25.7633 5.04799 25.5737 5.13512 25.4018C5.22226 25.23 5.34794 25.0806 5.50234 24.9654C5.65675 24.8501 5.83571 24.7721 6.02525 24.7375C9.21525 24.16 14.2202 22.395 16.2202 17.0625C17.6277 13.3125 17.5002 9.525 16.9277 6.4875C16.8949 6.31054 16.9006 6.12857 16.9446 5.95404C16.9885 5.7795 17.0697 5.61652 17.1824 5.47623C17.2952 5.33594 17.4369 5.22166 17.5979 5.14119C17.7589 5.06073 17.9354 5.01597 18.1152 5.01C18.2902 5 18.4652 5 18.6402 5Z" fill="url(#paint0_linear)"/>
<defs>
<linearGradient id="paint0_linear" x1="9.89029" y1="10.4238" x2="27.144" y2="25.8634" gradientUnits="userSpaceOnUse">
<stop offset="0.10243" stop-color="#28C2D1"/>
<stop offset="0.925347" stop-color="#4931DE"/>
</linearGradient>
</defs>
</svg>
