<svg width="22" height="22" viewBox="0 0 22 22" fill="none" xmlns="http://www.w3.org/2000/svg">
<path d="M13.399 14.6951C11.7516 16.0112 9.66289 16.6465 7.56172 16.4707C5.46056 16.2949 3.50647 15.3212 2.10079 13.7496C0.695104 12.178 -0.0554764 10.1278 0.00319799 8.02015C0.0618724 5.91246 0.925348 3.90723 2.41629 2.41629C3.90723 0.925348 5.91246 0.0618724 8.02015 0.00319799C10.1278 -0.0554764 12.178 0.695104 13.7496 2.10079C15.3212 3.50647 16.2949 5.46056 16.4707 7.56172C16.6465 9.66289 16.0112 11.7516 14.6951 13.399L21.7312 20.4332C21.9033 20.6054 22 20.8388 22 21.0822C22 21.3256 21.9033 21.5591 21.7312 21.7312C21.5591 21.9033 21.3256 22 21.0822 22C20.8388 22 20.6054 21.9033 20.4332 21.7312L13.4008 14.6951H13.399ZM14.6658 8.24932C14.6658 7.4067 14.4998 6.57233 14.1773 5.79385C13.8549 5.01537 13.3823 4.30803 12.7864 3.71221C12.1906 3.11639 11.4833 2.64376 10.7048 2.3213C9.92631 1.99884 9.09194 1.83288 8.24932 1.83288C7.4067 1.83288 6.57233 1.99884 5.79385 2.3213C5.01537 2.64376 4.30803 3.11639 3.71221 3.71221C3.11639 4.30803 2.64376 5.01537 2.3213 5.79385C1.99884 6.57233 1.83288 7.4067 1.83288 8.24932C1.83288 9.95107 2.50889 11.5831 3.71221 12.7864C4.91553 13.9897 6.54757 14.6658 8.24932 14.6658C9.95107 14.6658 11.5831 13.9897 12.7864 12.7864C13.9897 11.5831 14.6658 9.95107 14.6658 8.24932Z" fill="#637989"/>
</svg>
