<svg width="13" height="18" viewBox="0 0 13 18" fill="none" xmlns="http://www.w3.org/2000/svg">
<path d="M11.8629 7.91477L7.08998 0.314299C7.02073 0.217104 6.92925 0.137868 6.82316 0.0831964C6.71708 0.0285246 6.59947 0 6.48012 0C6.36078 0 6.24317 0.0285246 6.13709 0.0831964C6.031 0.137868 5.93952 0.217104 5.87027 0.314299L1.0757 7.95077C0.409605 9.02522 0.0385681 10.2563 0 11.5199C0 13.2385 0.682725 14.8868 1.89798 16.102C3.11324 17.3173 4.76149 18 6.48012 18C8.19876 18 9.847 17.3173 11.0623 16.102C12.2775 14.8868 12.9602 13.2385 12.9602 11.5199C12.9189 10.2424 12.5403 8.99865 11.8629 7.91477ZM6.48012 16.56C5.14393 16.5583 3.86296 16.0267 2.91813 15.0819C1.9733 14.137 1.44174 12.8561 1.44003 11.5199C1.4783 10.513 1.78074 9.53391 2.317 8.68086L2.99022 7.60804L10.2436 14.8615C9.77254 15.3952 9.19338 15.8227 8.54455 16.1157C7.89571 16.4086 7.19203 16.5603 6.48012 16.5607V16.56Z" fill="#3E8EED"/>
</svg>
