<svg width="35" height="32" viewBox="0 0 35 32" fill="none" xmlns="http://www.w3.org/2000/svg">
<g clip-path="url(#clip0)">
<path d="M34.0008 0.881875C34.1764 0.973006 34.3236 1.11065 34.4265 1.27982C34.5294 1.44898 34.584 1.64319 34.5844 1.8413V23.4989C34.5845 23.686 34.5361 23.87 34.444 24.0328C34.352 24.1956 34.2194 24.3318 34.0592 24.428L23.2515 30.9252C23.0888 31.0229 22.9032 31.076 22.7135 31.079C22.5238 31.082 22.3366 31.035 22.1708 30.9426L12.4223 25.5152C12.2641 25.4145 12.0807 25.3607 11.8933 25.36C11.7059 25.3592 11.5222 25.4115 11.3631 25.5109L11.3329 25.5282L1.60601 30.9426C1.4415 31.0342 1.25594 31.0813 1.06771 31.079C0.87948 31.0767 0.695109 31.0252 0.53285 30.9296C0.370591 30.834 0.236072 30.6975 0.142612 30.5338C0.0491525 30.3701 -7.04633e-06 30.1847 7.07658e-07 29.9961V9.42145C-0.000198229 9.24725 0.0415495 9.07558 0.121701 8.92099C0.201852 8.76641 0.31804 8.63348 0.460406 8.53349L11.268 0.953345C11.4498 0.825676 11.6664 0.757187 11.8884 0.757187C12.1104 0.757187 12.327 0.825676 12.5088 0.953345L22.696 8.10034L32.8833 0.953345C33.0455 0.839894 33.2357 0.773235 33.4331 0.760633C33.6306 0.748031 33.8277 0.789968 34.003 0.881875H34.0008ZM2.16153 9.98455V28.1552L10.2672 23.644C10.4423 23.54 10.6239 23.4534 10.8076 23.3862V3.92043L2.16153 9.98455ZM13.5052 23.6418L21.6239 28.1596L21.6153 9.98455L12.9692 3.92043V23.3906C13.1529 23.4555 13.3323 23.54 13.5052 23.6418V23.6418ZM23.7854 28.0794L32.4229 22.886V3.92043L23.7768 9.98455L23.7854 28.0794V28.0794Z" fill="#637989"/>
</g>
<defs>
<clipPath id="clip0">
<rect width="34.8021" height="31.08" fill="white"/>
</clipPath>
</defs>
</svg>
