<svg width="35" height="31" viewBox="0 0 35 31" fill="none" xmlns="http://www.w3.org/2000/svg">
<g clip-path="url(#clip0)">
<path d="M18.2673 3.73296C19.0671 2.82977 20.0395 2.09635 21.1269 1.57601C22.2144 1.05568 23.3949 0.758988 24.5987 0.703466C25.8026 0.647945 27.0053 0.834718 28.1359 1.25275C29.2664 1.67079 30.3019 2.31161 31.1812 3.13735C32.0604 3.9631 32.7656 4.95703 33.255 6.06043C33.7444 7.16382 34.0082 8.35431 34.0307 9.56155C34.0532 10.7688 33.834 11.9683 33.3861 13.0893C32.9381 14.2102 32.2705 15.2299 31.4227 16.0879L18.1691 29.495C18.0726 29.5927 17.9577 29.6702 17.8312 29.7231C17.7046 29.776 17.5688 29.8032 17.4317 29.8032C17.2945 29.8032 17.1588 29.776 17.0322 29.7231C16.9056 29.6702 16.7908 29.5927 16.6943 29.495L3.44067 16.0879C1.83306 14.4617 0.901378 12.2848 0.83384 9.99686C0.766303 7.70895 1.56794 5.48064 3.07681 3.76207C6.65723 -0.317447 12.9963 -0.331309 16.5961 3.73296L17.4317 4.67556L18.2673 3.73296V3.73296ZM30.2288 5.13438C29.5786 4.39393 28.7788 3.8004 27.8824 3.39314C26.986 2.98587 26.0134 2.77417 25.0291 2.77207C24.0449 2.76998 23.0714 2.97753 22.1733 3.38097C21.2751 3.78441 20.4728 4.37453 19.8195 5.1122L18.2064 6.93225C18.1091 7.04218 17.9896 7.13018 17.8558 7.19045C17.722 7.25072 17.577 7.28188 17.4303 7.28188C17.2836 7.28188 17.1386 7.25072 17.0048 7.19045C16.871 7.13018 16.7515 7.04218 16.6542 6.93225L15.0424 5.1122C14.428 4.41169 13.6792 3.84208 12.8407 3.43723C12.0022 3.03238 11.091 2.80053 10.1613 2.75548C9.23162 2.71043 8.30236 2.85309 7.42877 3.17498C6.55518 3.49687 5.75508 3.99142 5.07602 4.62925C4.39695 5.26708 3.85277 6.03517 3.47583 6.88788C3.09888 7.74059 2.89685 8.66052 2.88174 9.59301C2.86663 10.5255 3.03875 11.4515 3.38788 12.316C3.73701 13.1806 4.25601 13.9659 4.91406 14.6255L17.4317 27.2855L29.9479 14.6255C31.1859 13.3734 31.9034 11.6971 31.9555 9.93542C32.0077 8.17369 31.3905 6.4578 30.2288 5.13438V5.13438Z" fill="#637989"/>
</g>
<defs>
<clipPath id="clip0">
<rect width="34.8634" height="30.08" fill="white"/>
</clipPath>
</defs>
</svg>
