<svg width="36" height="36" viewBox="0 0 36 36" fill="none" xmlns="http://www.w3.org/2000/svg">
<path d="M35.98 17.7814C35.2574 13.7685 33.2285 10.1071 30.209 7.36691C27.1896 4.62674 23.349 2.96158 19.285 2.63057V0H16.7136V2.63057C12.6496 2.96158 8.80905 4.62674 5.78961 7.36691C2.77017 10.1071 0.741244 13.7685 0.0186075 17.7814C-0.023005 18.0234 0.00551215 18.2721 0.100789 18.4984C0.196066 18.7246 0.354119 18.9189 0.556269 19.0581C0.758419 19.1974 0.996215 19.2759 1.24155 19.2843C1.48689 19.2928 1.72952 19.2308 1.94075 19.1057C2.88559 18.4491 3.99353 18.0665 5.14218 18C6.23392 18.0264 7.29971 18.3383 8.23355 18.9044C9.16739 19.4706 9.93672 20.2714 10.465 21.2271C10.5877 21.4075 10.7525 21.555 10.9452 21.6571C11.138 21.7591 11.3527 21.8124 11.5708 21.8124C11.7888 21.8124 12.0036 21.7591 12.1963 21.6571C12.389 21.555 12.5538 21.4075 12.6765 21.2271C13.1077 20.4702 13.6877 19.8084 14.3815 19.2817C15.0754 18.7549 15.8687 18.374 16.7136 18.162V30.2143C16.7136 31.0668 16.375 31.8843 15.7722 32.4871C15.1694 33.0899 14.3518 33.4286 13.4993 33.4286C12.6468 33.4286 11.8293 33.0899 11.2265 32.4871C10.6237 31.8843 10.285 31.0668 10.285 30.2143V29.5714H7.71361V30.2143C7.71361 31.7488 8.32317 33.2204 9.4082 34.3054C10.4932 35.3904 11.9649 36 13.4993 36C15.0338 36 16.5054 35.3904 17.5904 34.3054C18.6755 33.2204 19.285 31.7488 19.285 30.2143V18.1607C20.1302 18.373 20.9236 18.7543 21.6175 19.2815C22.3113 19.8088 22.8912 20.471 23.3222 21.2284C23.436 21.4203 23.5978 21.5792 23.7917 21.6896C23.9856 21.8 24.2048 21.858 24.4279 21.858C24.651 21.858 24.8702 21.8 25.0641 21.6896C25.258 21.5792 25.4198 21.4203 25.5336 21.2284C26.0618 20.2724 26.831 19.4714 27.7649 18.905C28.6987 18.3386 29.7646 18.0266 30.8565 18C32.0051 18.0665 33.113 18.4491 34.0579 19.1057C34.2691 19.2312 34.5119 19.2935 34.7575 19.2852C35.003 19.277 35.2411 19.1985 35.4435 19.0592C35.6458 18.9199 35.8041 18.7255 35.8994 18.499C35.9947 18.2726 36.0231 18.0235 35.9813 17.7814H35.98ZM5.14218 15.4286C4.48836 15.4285 3.83781 15.5207 3.20975 15.7024C4.08254 13.2713 5.53111 11.0877 7.43159 9.33838C9.33208 7.58903 11.6279 6.32595 14.1229 5.65714C11.5743 8.94281 10.196 12.9855 10.2066 17.1437C8.74987 16.0365 6.97191 15.4344 5.14218 15.4286ZM17.9993 15.4286C16.1037 15.4373 14.2664 16.0851 12.7845 17.2671C12.832 14.4129 13.5662 8.92286 17.9993 5.46943C22.4093 8.91129 23.1537 14.4051 23.209 17.2633C21.728 16.0837 19.8927 15.4374 17.9993 15.4286ZM30.8565 15.4286C29.0269 15.434 27.2489 16.0357 25.792 17.1424C25.8027 12.9842 24.4243 8.94153 21.8757 5.65586C24.3708 6.32479 26.6668 7.58807 28.5673 9.33765C30.4678 11.0872 31.9163 13.2711 32.7889 15.7024C32.1608 15.5207 31.5103 15.4285 30.8565 15.4286Z" fill="url(#paint0_linear)"/>
<defs>
<linearGradient id="paint0_linear" x1="6.14752" y1="6.50858" x2="26.9365" y2="25.9966" gradientUnits="userSpaceOnUse">
<stop offset="0.10243" stop-color="#28C2D1"/>
<stop offset="0.925347" stop-color="#4931DE"/>
</linearGradient>
</defs>
</svg>
