<svg width="26" height="36" viewBox="0 0 26 36" fill="none" xmlns="http://www.w3.org/2000/svg">
<path d="M23.7259 15.8295L14.18 0.628598C14.0415 0.434207 13.8585 0.275737 13.6463 0.166393C13.4342 0.0570492 13.1989 0 12.9602 0C12.7216 0 12.4863 0.0570492 12.2742 0.166393C12.062 0.275737 11.879 0.434207 11.7405 0.628598L2.1514 15.9015C0.819211 18.0504 0.0771362 20.5126 0 23.0398C0 26.477 1.36545 29.7735 3.79597 32.204C6.22649 34.6345 9.52298 36 12.9602 36C16.3975 36 19.694 34.6345 22.1245 32.204C24.555 29.7735 25.9205 26.477 25.9205 23.0398C25.8377 20.4848 25.0806 17.9973 23.7259 15.8295ZM12.9602 33.1199C10.2879 33.1165 7.72592 32.0534 5.83626 30.1637C3.9466 28.2741 2.88348 25.7121 2.88006 23.0398C2.9566 21.026 3.56149 19.0678 4.63401 17.3617L5.98043 15.2161L20.4873 29.7229C19.5451 30.7904 18.3868 31.6454 17.0891 32.2313C15.7914 32.8172 14.3841 33.1206 12.9602 33.1214V33.1199Z" fill="url(#paint0_linear)"/>
<defs>
<linearGradient id="paint0_linear" x1="4.42629" y1="6.50858" x2="23.7465" y2="19.5489" gradientUnits="userSpaceOnUse">
<stop offset="0.10243" stop-color="#28C2D1"/>
<stop offset="0.925347" stop-color="#4931DE"/>
</linearGradient>
</defs>
</svg>
