<svg width="21" height="20" viewBox="0 0 21 20" fill="none" xmlns="http://www.w3.org/2000/svg">
<path d="M11.2812 0.864624C11.2812 0.657424 11.1989 0.45871 11.0524 0.312197C10.9059 0.165684 10.7072 0.083374 10.5 0.083374C10.2928 0.083374 10.0941 0.165684 9.94757 0.312197C9.80106 0.45871 9.71875 0.657424 9.71875 0.864624V2.42712C9.71875 2.63432 9.80106 2.83304 9.94757 2.97955C10.0941 3.12606 10.2928 3.20837 10.5 3.20837C10.7072 3.20837 10.9059 3.12606 11.0524 2.97955C11.1989 2.83304 11.2812 2.63432 11.2812 2.42712V0.864624Z" fill="#FFD590"/>
<path d="M17.8229 3.17712C17.9692 3.3236 18.0514 3.52217 18.0514 3.7292C18.0514 3.93623 17.9692 4.1348 17.8229 4.28129L16.7187 5.38649C16.5715 5.52888 16.3741 5.60772 16.1693 5.60603C15.9645 5.60435 15.7685 5.52228 15.6236 5.3775C15.4786 5.23272 15.3964 5.03681 15.3945 4.83196C15.3926 4.62712 15.4713 4.42974 15.6135 4.28233L16.7177 3.17712C16.7902 3.10452 16.8764 3.04693 16.9712 3.00764C17.066 2.96834 17.1677 2.94812 17.2703 2.94812C17.3729 2.94812 17.4746 2.96834 17.5694 3.00764C17.6642 3.04693 17.7503 3.10452 17.8229 3.17712Z" fill="#FFD590"/>
<path d="M16.1354 11.5418C16.2867 10.7157 16.2545 9.86649 16.0412 9.05424C15.8279 8.242 15.4386 7.48658 14.9009 6.84148C14.3633 6.19637 13.6903 5.67736 12.9298 5.32119C12.1693 4.96502 11.3398 4.7804 10.5 4.7804C9.66019 4.7804 8.83066 4.96502 8.07014 5.32119C7.30961 5.67736 6.63669 6.19637 6.09902 6.84148C5.56134 7.48658 5.17206 8.242 4.95873 9.05424C4.74541 9.86649 4.71326 10.7157 4.86456 11.5418H0.864563C0.657363 11.5418 0.458649 11.6241 0.312136 11.7706C0.165623 11.9171 0.083313 12.1158 0.083313 12.323C0.083313 12.5302 0.165623 12.7289 0.312136 12.8754C0.458649 13.0219 0.657363 13.1043 0.864563 13.1043H20.1354C20.3426 13.1043 20.5413 13.0219 20.6878 12.8754C20.8343 12.7289 20.9166 12.5302 20.9166 12.323C20.9166 12.1158 20.8343 11.9171 20.6878 11.7706C20.5413 11.6241 20.3426 11.5418 20.1354 11.5418H16.1354ZM10.5 6.33343C11.136 6.33326 11.7636 6.4787 12.3347 6.75858C12.9058 7.03847 13.4052 7.44537 13.7948 7.94812C14.1843 8.45087 14.4536 9.03612 14.5819 9.65903C14.7103 10.2819 14.6944 10.926 14.5354 11.5418H6.46456C6.30556 10.926 6.28964 10.2819 6.41802 9.65903C6.5464 9.03612 6.81568 8.45087 7.20521 7.94812C7.59474 7.44537 8.09419 7.03847 8.66529 6.75858C9.23639 6.4787 9.86398 6.33326 10.5 6.33343Z" fill="#FFD590"/>
<path d="M4.25 15.4479C4.25 15.2407 4.33231 15.042 4.47882 14.8955C4.62534 14.749 4.82405 14.6667 5.03125 14.6667H15.9688C16.176 14.6667 16.3747 14.749 16.5212 14.8955C16.6677 15.042 16.75 15.2407 16.75 15.4479C16.75 15.6551 16.6677 15.8539 16.5212 16.0004C16.3747 16.1469 16.176 16.2292 15.9688 16.2292H5.03125C4.82405 16.2292 4.62534 16.1469 4.47882 16.0004C4.33231 15.8539 4.25 15.6551 4.25 15.4479Z" fill="#FFD590"/>
<path d="M8.41663 18.5729C8.41663 18.3657 8.49894 18.167 8.64545 18.0205C8.79196 17.874 8.99068 17.7917 9.19788 17.7917H11.802C12.0092 17.7917 12.208 17.874 12.3545 18.0205C12.501 18.167 12.5833 18.3657 12.5833 18.5729C12.5833 18.7801 12.501 18.9789 12.3545 19.1254C12.208 19.2719 12.0092 19.3542 11.802 19.3542H9.19788C8.99068 19.3542 8.79196 19.2719 8.64545 19.1254C8.49894 18.9789 8.41663 18.7801 8.41663 18.5729Z" fill="#FFD590"/>
<path d="M3.17706 3.17709C3.32354 3.03078 3.52211 2.94861 3.72914 2.94861C3.93617 2.94861 4.13474 3.03078 4.28123 3.17709L5.38643 4.28125C5.46108 4.35329 5.52064 4.43947 5.56163 4.53476C5.60262 4.63006 5.62422 4.73256 5.62517 4.8363C5.62612 4.94003 5.6064 5.04291 5.56716 5.13894C5.52793 5.23497 5.46996 5.32223 5.39664 5.39562C5.32332 5.46901 5.23612 5.52706 5.14013 5.56638C5.04413 5.60571 4.94127 5.62553 4.83753 5.62467C4.7338 5.62382 4.63127 5.60232 4.53594 5.56142C4.4406 5.52052 4.35437 5.46105 4.28227 5.38646L3.17706 4.2823C3.10446 4.20974 3.04687 4.1236 3.00758 4.02878C2.96828 3.93396 2.94806 3.83233 2.94806 3.72969C2.94806 3.62705 2.96828 3.52542 3.00758 3.4306C3.04687 3.33579 3.10446 3.24964 3.17706 3.17709Z" fill="#FFD590"/>
</svg>
