<svg width="20" height="21" viewBox="0 0 20 21" fill="none" xmlns="http://www.w3.org/2000/svg">
<path d="M11.951 1.71645L12.1333 1.88645L12.8521 2.6052C13.0989 2.85092 13.4228 3.00242 13.7673 3.03646L13.916 3.04378H14.944C16.5478 3.04378 17.8592 4.29795 17.9509 5.87883L17.956 6.05578V7.08278C17.956 7.43258 18.0766 7.76886 18.2942 8.03624L18.3933 8.14645L19.1121 8.86525C20.2436 9.99165 20.2942 11.7929 19.2576 12.98L19.1223 13.1251L18.3939 13.8535C18.149 14.099 17.9974 14.4231 17.9633 14.7672L17.956 14.9158V15.9448C17.956 17.5485 16.7019 18.8591 15.1209 18.9507L14.944 18.9558H13.916C13.5674 18.9558 13.2307 19.0769 12.9632 19.2951L12.8529 19.3945L12.1351 20.1113C11.0099 21.2442 9.20732 21.2944 8.0198 20.2574L7.86565 20.1131L7.14854 19.396C6.90014 19.1494 6.57571 18.9973 6.2322 18.9631L6.08398 18.9558H5.05498C3.45185 18.9558 2.1407 17.7023 2.0491 16.1217L2.04398 15.9448V14.9158C2.04398 14.5678 1.92268 14.2308 1.7046 13.9637L1.60528 13.8537L0.888155 13.1356C-0.24442 12.0094 -0.294658 10.2068 0.742362 9.02044L0.877652 8.87545L1.60377 8.14834C1.85072 7.89963 2.00255 7.57581 2.03664 7.23146L2.04398 7.08278V6.05578L2.0491 5.87885C2.13732 4.35668 3.35648 3.13715 4.87811 3.0489L5.05498 3.04378H6.08398C6.43246 3.04378 6.76923 2.9229 7.03628 2.70572L7.14628 2.60682L7.86445 1.88765C8.99082 0.756177 10.7932 0.706363 11.951 1.71645ZM9.0414 2.84256L8.92668 2.94674L8.20543 3.66899C7.68818 4.18258 7.00406 4.48966 6.28181 4.53727L6.08398 4.54378H5.05498C4.26742 4.54378 3.6197 5.14793 3.55016 5.91821L3.54398 6.05578V7.08278C3.54398 7.81195 3.27937 8.5131 2.80208 9.06116L2.66668 9.20674L1.93951 9.93491C1.3877 10.4892 1.35557 11.3649 1.84322 11.9589L1.94768 12.0738L2.66694 12.7941C3.18134 13.3097 3.48963 13.995 3.53744 14.7178L3.54398 14.9158V15.9448C3.54398 16.7328 4.14769 17.3801 4.9175 17.4496L5.05498 17.4558H6.08398C6.81177 17.4558 7.51353 17.7207 8.06171 18.198L8.20731 18.3335L8.93062 19.0568C9.48884 19.6119 10.3647 19.6442 10.9583 19.1565L11.073 19.0521L11.7939 18.3322C12.3106 17.8179 12.9951 17.5101 13.718 17.4623L13.916 17.4558H14.944C15.7327 17.4558 16.3803 16.8524 16.4498 16.0823L16.456 15.9448V14.9158C16.456 14.1869 16.7208 13.4839 17.1974 12.9383L17.3327 12.7935L18.0602 12.066C18.612 11.511 18.6439 10.6358 18.157 10.0419L18.0527 9.92711L17.3308 9.20523C16.8169 8.68765 16.5101 8.00422 16.4625 7.28094L16.456 7.08278V6.05578C16.456 5.26737 15.8519 4.61951 15.0816 4.54996L14.944 4.54378H13.916C13.1868 4.54378 12.4848 4.27939 11.9379 3.80243L11.7927 3.66711L11.1047 2.97734L11.0649 2.94031C10.5106 2.38855 9.63472 2.35624 9.0414 2.84256ZM13.0964 13.0424C13.1664 13.1124 13.2264 13.1924 13.2664 13.2824C13.2964 13.3724 13.3164 13.4724 13.3164 13.5724C13.3164 13.6734 13.2964 13.7624 13.2664 13.8524C13.2264 13.9424 13.1664 14.0324 13.0964 14.1024C12.9564 14.2424 12.7664 14.3224 12.5664 14.3224C12.3664 14.3224 12.1764 14.2424 12.0364 14.1024C11.9664 14.0324 11.9164 13.9424 11.8764 13.8524C11.8364 13.7624 11.8164 13.6734 11.8164 13.5724C11.8164 13.4724 11.8364 13.3724 11.8764 13.2824C11.9164 13.1924 11.9664 13.1124 12.0364 13.0424C12.3164 12.7624 12.8164 12.7624 13.0964 13.0424ZM13.1 7.89915C13.3663 8.16542 13.3905 8.58208 13.1726 8.87569L13.1 8.95981L7.96001 14.0998C7.66712 14.3927 7.19225 14.3927 6.89935 14.0998C6.63309 13.8335 6.60888 13.4169 6.82673 13.1233L6.89935 13.0392L12.0394 7.89915C12.3322 7.60626 12.8071 7.60626 13.1 7.89915ZM7.95628 7.90278C8.09628 8.04178 8.17628 8.23278 8.17628 8.43278C8.17628 8.53278 8.16628 8.62178 8.12628 8.71278C8.08628 8.80278 8.02628 8.88278 7.95628 8.96278C7.88628 9.03278 7.80628 9.08178 7.71628 9.12178C7.62628 9.16178 7.52628 9.18278 7.42628 9.18278C7.32628 9.18278 7.23628 9.16178 7.14628 9.12178C7.05628 9.08178 6.96628 9.03278 6.89628 8.96278C6.82628 8.88278 6.77628 8.80278 6.73628 8.71278C6.69628 8.62178 6.67628 8.53278 6.67628 8.43278C6.67628 8.33178 6.69628 8.23278 6.73628 8.14278C6.77628 8.05278 6.82628 7.96278 6.89628 7.90278C7.18628 7.62178 7.67628 7.62178 7.95628 7.90278Z" fill="#EA7C69"/>
</svg>
