<svg width="14" height="14" viewBox="0 0 14 14" fill="none" xmlns="http://www.w3.org/2000/svg">
<path d="M13.6425 3.51624L12.6902 0.659099C12.6254 0.46454 12.4433 0.333318 12.2383 0.333374H1.76207C1.55702 0.333318 1.37496 0.46454 1.31018 0.659099L0.357778 3.51624C0.343101 3.56072 0.334898 3.60706 0.333503 3.65385C0.333503 3.65862 0.333503 3.66194 0.333503 3.66671V4.14291C0.335233 4.88901 0.688051 5.59079 1.28587 6.03719C1.28587 6.04101 1.28587 6.04386 1.28587 6.04766V12.2381C1.28587 13.0271 1.92547 13.6667 2.71444 13.6667H11.2859C12.0748 13.6667 12.7144 13.0271 12.7144 12.2381V6.04766C12.7144 6.04383 12.7144 6.04099 12.7144 6.03719C13.3123 5.59079 13.6651 4.88901 13.6668 4.14291V3.66671C13.6668 3.66194 13.6668 3.65862 13.6668 3.65385C13.6654 3.60703 13.6572 3.56069 13.6425 3.51624ZM2.1335 1.28574H11.8949L12.5302 3.19051H1.46683L2.1335 1.28574ZM7.95255 12.7143H6.04778V8.9048H7.95255V12.7143ZM11.7621 12.2381C11.7621 12.5011 11.5489 12.7143 11.2859 12.7143H8.90493V8.42862C8.90493 8.16562 8.69173 7.95242 8.42873 7.95242H5.57159C5.30858 7.95242 5.09539 8.16562 5.09539 8.42862V12.7143H2.71444C2.45144 12.7143 2.23825 12.5011 2.23825 12.2381V6.47623C2.90652 6.61342 3.60144 6.45393 4.14302 6.03909C4.99307 6.66342 6.1501 6.66342 7.00016 6.03909C7.85021 6.66342 9.00724 6.66342 9.8573 6.03909C10.3989 6.45396 11.0938 6.61342 11.7621 6.47623V12.2381ZM11.2859 5.57146C10.8741 5.5712 10.483 5.39057 10.2159 5.07718C10.0428 4.87916 9.74198 4.8589 9.54396 5.03195C9.52789 5.04598 9.51277 5.06111 9.49873 5.07718C8.96924 5.66814 8.06098 5.71794 7.47002 5.18848C7.43093 5.15343 7.39377 5.11629 7.35872 5.07718C7.17237 4.87916 6.86076 4.86967 6.66271 5.05605C6.65546 5.06289 6.6484 5.06992 6.64159 5.07718C6.11213 5.66814 5.20384 5.71794 4.61288 5.18848C4.57376 5.15343 4.53663 5.11629 4.50158 5.07718C4.31522 4.87916 4.00359 4.86967 3.80557 5.05605C3.79832 5.06289 3.79126 5.06992 3.78445 5.07718C3.51729 5.39057 3.12627 5.5712 2.71444 5.57146C1.92547 5.57146 1.28587 4.93186 1.28587 4.14289H12.7144C12.7144 4.93186 12.0748 5.57146 11.2859 5.57146Z" fill="#ABBBC2"/>
</svg>
