<svg width="14" height="14" viewBox="0 0 14 14" fill="none" xmlns="http://www.w3.org/2000/svg">
<path d="M7.00016 0.333496C10.6821 0.333496 13.6668 3.31847 13.6668 7.00016C13.6668 10.6819 10.6821 13.6668 7.00016 13.6668C3.31869 13.6668 0.333496 10.6816 0.333496 7.00016C0.333496 3.31869 3.31869 0.333496 7.00016 0.333496ZM7.00016 1.3335C3.87097 1.3335 1.3335 3.87097 1.3335 7.00016C1.3335 10.1294 3.87097 12.6668 7.00016 12.6668C10.1298 12.6668 12.6668 10.1296 12.6668 7.00016C12.6668 3.87073 10.1298 1.3335 7.00016 1.3335ZM7.00356 9.03076C7.2797 9.03076 7.50356 9.25462 7.50356 9.53076C7.50356 9.78389 7.31546 9.99309 7.07141 10.0262L6.9969 10.0308C6.72075 10.0308 6.4969 9.8069 6.4969 9.53076C6.4969 9.27763 6.685 9.06844 6.92905 9.03533L7.00356 9.03076ZM6.9969 3.96956C7.25003 3.96956 7.45922 4.15767 7.49233 4.40172L7.4969 4.46956V7.41556C7.4969 7.6917 7.27304 7.91556 6.9969 7.91556C6.74377 7.91556 6.53457 7.72746 6.50146 7.48341L6.4969 7.41556V4.46956C6.4969 4.19342 6.72075 3.96956 6.9969 3.96956Z" fill="#ABBBC2"/>
</svg>
