<svg width="18" height="20" viewBox="0 0 18 20" fill="none" xmlns="http://www.w3.org/2000/svg">
<path d="M11.608 17.6906C11.9045 17.9321 11.9515 18.3713 11.7129 18.6715C11.5366 18.8935 11.3327 19.0922 11.1167 19.255C10.3891 19.826 9.46401 20.0849 8.5453 19.9754C7.62578 19.8659 6.787 19.3962 6.21459 18.6689C5.9774 18.3676 6.02646 17.9286 6.32418 17.6885C6.62189 17.4484 7.05551 17.4981 7.29271 17.7995C7.63792 18.2381 8.14669 18.523 8.7064 18.5896C9.26691 18.6564 9.83075 18.4986 10.2826 18.1443C10.4158 18.0437 10.5355 17.927 10.6389 17.7969C10.8775 17.4967 11.3114 17.4491 11.608 17.6906ZM2.15213 6.99974L2.16444 6.40391C2.17324 6.14906 2.18686 5.91248 2.20685 5.68096C2.50654 2.44456 5.59565 0 8.96479 0H9.03612C12.4034 0 15.4934 2.44285 15.8034 5.68536C15.8212 5.89148 15.8288 6.07458 15.8311 6.33206L15.832 7.11982C15.8327 7.19158 15.8339 7.25469 15.8358 7.31353L15.845 7.50977L15.8896 7.69688C16.0303 8.21802 16.2776 8.70525 16.6162 9.12821L16.7669 9.30546L16.8286 9.38467C17.2348 9.99168 17.4668 10.698 17.5 11.4587L17.499 11.862C17.4707 12.763 17.1399 13.6331 16.5338 14.3582C15.7311 15.2101 14.6434 15.7393 13.4873 15.8457C10.502 16.1699 7.49 16.1699 4.51296 15.8466C3.34896 15.7346 2.26444 15.2069 1.42663 14.3223C0.808819 13.5691 0.480415 12.6208 0.500904 11.6624L0.50175 11.4242C0.537443 10.6955 0.768036 9.98985 1.16936 9.3802L1.23653 9.29378C1.70525 8.77993 2.02569 8.15105 2.16473 7.47306L2.14969 7.53395L2.15213 6.99974ZM9.03612 1.39535H8.96479C6.26651 1.39535 3.80804 3.34087 3.57967 5.80678C3.56798 5.94228 3.55866 6.08207 3.55137 6.2292L3.53532 6.69559L3.52879 7.61486L3.51441 7.75667C3.32444 8.68301 2.88728 9.54093 2.24929 10.2404L2.29856 10.1833L2.21045 10.3291C2.04539 10.6265 1.9389 10.9495 1.89682 11.2682L1.87935 11.4587L1.87919 11.6774C1.86568 12.3142 2.08086 12.9356 2.45369 13.3931C3.02881 13.9985 3.80682 14.377 4.65168 14.4583C7.53928 14.7719 10.4527 14.7719 13.3514 14.4572C14.1871 14.3802 14.9645 14.002 15.5084 13.4267C15.92 12.933 16.1375 12.3097 16.1216 11.6536L16.1224 11.4901C16.1013 11.0186 15.951 10.5613 15.6873 10.1672L15.7026 10.1926L15.5647 10.0309C15.0893 9.44409 14.744 8.76351 14.5517 8.03396L14.4868 7.75818L14.4739 7.66551C14.4642 7.53013 14.4585 7.40982 14.4555 7.26514L14.4528 6.3605C14.4509 6.13044 14.4447 5.97558 14.4307 5.81326C14.1944 3.34075 11.7336 1.39535 9.03612 1.39535Z" fill="#EA7C69"/>
</svg>
