<svg width="12" height="14" viewBox="0 0 12 14" fill="none" xmlns="http://www.w3.org/2000/svg">
<path d="M6.00674 0.333402C7.54966 0.333402 8.90529 1.29938 9.40214 2.71113C9.49398 2.97207 9.35341 3.25684 9.08817 3.34719C8.82294 3.43754 8.53348 3.29925 8.44164 3.03831C8.08545 2.02623 7.11313 1.3334 6.00472 1.3334C4.62673 1.32803 3.49704 2.38767 3.42213 3.72388L3.4182 3.85403L3.41816 4.75071L8.58904 4.75094C10.2402 4.75094 11.5878 6.03051 11.6635 7.63696L11.6668 7.77953V10.6381C11.6668 12.3108 10.2888 13.6667 8.58904 13.6667H3.41128C1.71152 13.6667 0.333496 12.3108 0.333496 10.6381V7.77953C0.333496 6.45489 1.19775 5.32888 2.40163 4.91767L2.40175 3.85184C2.41044 1.90059 4.02518 0.325698 6.00674 0.333402ZM8.58904 5.75091H3.41128C2.27293 5.75091 1.34994 6.65912 1.34994 7.77953V10.6381C1.34994 11.7585 2.27293 12.6667 3.41128 12.6667H8.58904C9.7274 12.6667 10.6504 11.7585 10.6504 10.6381V7.77953C10.6504 6.65912 9.7274 5.75091 8.58904 5.75091ZM6.0003 7.96832C6.25759 7.96832 6.47023 8.15642 6.50388 8.40046L6.50852 8.46831V9.9496C6.50852 10.2257 6.28098 10.4496 6.0003 10.4496C5.74301 10.4496 5.53037 10.2615 5.49672 10.0174L5.49208 9.9496V8.46831C5.49208 8.19217 5.71962 7.96832 6.0003 7.96832Z" fill="#ABBBC2"/>
</svg>
