<svg width="30" height="31" viewBox="0 0 30 31" fill="none" xmlns="http://www.w3.org/2000/svg">
<g clip-path="url(#clip0)">
<path d="M0.626057 11.1308C1.28203 9.10134 2.35964 7.23413 3.78791 5.65212C3.90596 5.5214 4.06012 5.42878 4.23081 5.38603C4.4015 5.34327 4.58102 5.3523 4.74658 5.41198L8.15165 6.63223C8.39406 6.71896 8.65239 6.75184 8.90874 6.72859C9.16509 6.70534 9.41332 6.62651 9.63624 6.49757C9.85916 6.36863 10.0514 6.19267 10.1997 5.98187C10.348 5.77108 10.4488 5.53049 10.4951 5.27679L11.1431 1.70853C11.1745 1.53483 11.2567 1.37441 11.3794 1.2477C11.502 1.121 11.6596 1.03373 11.8319 0.99701C13.9123 0.552999 16.0627 0.552999 18.1432 0.99701C18.3155 1.03373 18.473 1.121 18.5957 1.2477C18.7183 1.37441 18.8006 1.53483 18.832 1.70853L19.4818 5.27679C19.528 5.53049 19.6288 5.77108 19.7771 5.98187C19.9254 6.19267 20.1177 6.36863 20.3406 6.49757C20.5635 6.62651 20.8117 6.70534 21.0681 6.72859C21.3244 6.75184 21.5828 6.71896 21.8252 6.63223L25.232 5.41198C25.3975 5.3529 25.5768 5.34435 25.7471 5.38742C25.9175 5.43048 26.0712 5.52322 26.1889 5.6539C27.6163 7.23555 28.6933 9.10213 29.349 11.1308C29.4031 11.2984 29.4064 11.4783 29.3583 11.6477C29.3103 11.8171 29.2131 11.9684 29.0792 12.0825L26.3185 14.4305C26.1224 14.5975 25.9649 14.8052 25.8568 15.0392C25.7488 15.2733 25.6929 15.528 25.6929 15.7859C25.6929 16.0438 25.7488 16.2986 25.8568 16.5326C25.9649 16.7667 26.1224 16.9744 26.3185 17.1414L29.0792 19.4894C29.2131 19.6034 29.3103 19.7547 29.3583 19.9241C29.4064 20.0936 29.4031 20.2734 29.349 20.441C28.6936 22.4703 27.6166 24.3375 26.1889 25.9197C26.0709 26.0504 25.9167 26.143 25.746 26.1858C25.5753 26.2286 25.3958 26.2195 25.2303 26.1598L21.8252 24.9396C21.5828 24.8529 21.3244 24.82 21.0681 24.8432C20.8117 24.8665 20.5635 24.9453 20.3406 25.0743C20.1177 25.2032 19.9254 25.3792 19.7771 25.59C19.6288 25.8008 19.528 26.0413 19.4818 26.295L18.8302 29.8651C18.7986 30.0382 18.7165 30.1981 18.5942 30.3244C18.4719 30.4508 18.3149 30.5379 18.1432 30.5748C16.0628 31.0189 13.9123 31.0189 11.8319 30.5748C11.6596 30.5381 11.502 30.4508 11.3794 30.3241C11.2567 30.1974 11.1745 30.037 11.1431 29.8633L10.4951 26.295C10.4488 26.0413 10.348 25.8008 10.1997 25.59C10.0514 25.3792 9.85916 25.2032 9.63624 25.0743C9.41332 24.9453 9.16509 24.8665 8.90874 24.8432C8.65239 24.82 8.39406 24.8529 8.15165 24.9396L4.74481 26.1598C4.57932 26.2189 4.40005 26.2275 4.22971 26.1844C4.05937 26.1413 3.90561 26.0486 3.78791 25.9179C2.36045 24.3363 1.28346 22.4697 0.627833 20.441C0.573714 20.2734 0.570469 20.0936 0.61851 19.9241C0.666551 19.7547 0.763713 19.6034 0.897682 19.4894L3.65831 17.1414C3.85442 16.9744 4.01195 16.7667 4.11998 16.5326C4.22802 16.2986 4.28397 16.0438 4.28397 15.7859C4.28397 15.528 4.22802 15.2733 4.11998 15.0392C4.01195 14.8052 3.85442 14.5975 3.65831 14.4305L0.897682 12.0825C0.763713 11.9684 0.666551 11.8171 0.61851 11.6477C0.570469 11.4783 0.573714 11.2984 0.627833 11.1308H0.626057ZM2.50967 11.1201L4.80694 13.0733C5.19977 13.4072 5.51536 13.8228 5.7318 14.2913C5.94825 14.7597 6.06036 15.2697 6.06036 15.7859C6.06036 16.3021 5.94825 16.8121 5.7318 17.2805C5.51536 17.749 5.19977 18.1646 4.80694 18.4986L2.50967 20.4517C3.02807 21.8427 3.77725 23.1377 4.71995 24.2797L7.55337 23.2657C8.0383 23.0923 8.55509 23.0266 9.0679 23.0732C9.5807 23.1198 10.0773 23.2776 10.5231 23.5357C10.969 23.7937 11.3535 24.1459 11.65 24.5677C11.9465 24.9895 12.1479 25.4709 12.2402 25.9784L12.7817 28.9454C14.2422 29.1894 15.7329 29.1894 17.1934 28.9454L17.7348 25.9749C17.8274 25.4675 18.0289 24.9863 18.3255 24.5647C18.6221 24.1431 19.0067 23.7912 19.4525 23.5333C19.8983 23.2754 20.3948 23.1178 20.9075 23.0713C21.4202 23.0248 21.9369 23.0905 22.4217 23.264L25.2569 24.2797C26.2013 23.1359 26.9483 21.8421 27.4672 20.4517L25.1699 18.4986C24.7765 18.1649 24.4604 17.7494 24.2436 17.281C24.0268 16.8125 23.9145 16.3023 23.9145 15.7859C23.9145 15.2695 24.0268 14.7593 24.2436 14.2909C24.4604 13.8224 24.7765 13.4069 25.1699 13.0733L27.4672 11.1201C26.9484 9.72968 26.2013 8.43587 25.2569 7.29217L22.4235 8.30608C21.9387 8.47954 21.422 8.54529 20.9093 8.49879C20.3966 8.45228 19.9001 8.29463 19.4543 8.03675C19.0084 7.77888 18.6239 7.42695 18.3273 7.00536C18.0307 6.58377 17.8292 6.1026 17.7366 5.5952L17.1934 2.62639C15.7329 2.3824 14.2422 2.3824 12.7817 2.62639L12.242 5.5952C12.1497 6.10275 11.9483 6.58412 11.6518 7.00592C11.3553 7.42772 10.9708 7.77986 10.5249 8.03792C10.079 8.29598 9.58248 8.45379 9.06967 8.5004C8.55687 8.54701 8.04008 8.48131 7.55514 8.30786L4.71995 7.29217C3.77553 8.43589 3.02848 9.7297 2.50967 11.1201V11.1201ZM10.5501 15.7859C10.5501 14.6065 11.0177 13.4754 11.8501 12.6414C12.6824 11.8074 13.8113 11.3389 14.9884 11.3389C16.1655 11.3389 17.2944 11.8074 18.1268 12.6414C18.9591 13.4754 19.4267 14.6065 19.4267 15.7859C19.4267 16.9653 18.9591 18.0964 18.1268 18.9304C17.2944 19.7644 16.1655 20.2329 14.9884 20.2329C13.8113 20.2329 12.6824 19.7644 11.8501 18.9304C11.0177 18.0964 10.5501 16.9653 10.5501 15.7859ZM12.3254 15.7859C12.3254 16.4936 12.606 17.1722 13.1054 17.6726C13.6048 18.173 14.2821 18.4541 14.9884 18.4541C15.6947 18.4541 16.372 18.173 16.8714 17.6726C17.3708 17.1722 17.6514 16.4936 17.6514 15.7859C17.6514 15.0783 17.3708 14.3996 16.8714 13.8992C16.372 13.3988 15.6947 13.1177 14.9884 13.1177C14.2821 13.1177 13.6048 13.3988 13.1054 13.8992C12.606 14.3996 12.3254 15.0783 12.3254 15.7859V15.7859Z" fill="#F7B548"/>
</g>
<defs>
<clipPath id="clip0">
<rect width="29.4878" height="31" fill="white"/>
</clipPath>
</defs>
</svg>
