<svg width="30" height="31" viewBox="0 0 30 31" fill="none" xmlns="http://www.w3.org/2000/svg">
<g clip-path="url(#clip0)">
<path d="M0.626118 11.1308C1.28209 9.10134 2.3597 7.23413 3.78797 5.65212C3.90602 5.5214 4.06018 5.42878 4.23087 5.38603C4.40156 5.34327 4.58108 5.3523 4.74664 5.41198L8.15171 6.63223C8.39412 6.71896 8.65245 6.75184 8.9088 6.72859C9.16515 6.70534 9.41338 6.62651 9.6363 6.49757C9.85923 6.36863 10.0515 6.19267 10.1998 5.98187C10.3481 5.77108 10.4489 5.53049 10.4951 5.27679L11.1431 1.70853C11.1745 1.53483 11.2568 1.37441 11.3794 1.2477C11.5021 1.121 11.6596 1.03373 11.832 0.99701C13.9124 0.552999 16.0628 0.552999 18.1432 0.99701C18.3156 1.03373 18.4731 1.121 18.5957 1.2477C18.7184 1.37441 18.8007 1.53483 18.832 1.70853L19.4818 5.27679C19.5281 5.53049 19.6289 5.77108 19.7772 5.98187C19.9255 6.19267 20.1177 6.36863 20.3406 6.49757C20.5636 6.62651 20.8118 6.70534 21.0682 6.72859C21.3245 6.75184 21.5828 6.71896 21.8252 6.63223L25.2321 5.41198C25.3976 5.3529 25.5768 5.34435 25.7472 5.38742C25.9175 5.43048 26.0713 5.52322 26.189 5.6539C27.6164 7.23555 28.6934 9.10213 29.3491 11.1308C29.4032 11.2984 29.4064 11.4783 29.3584 11.6477C29.3103 11.8171 29.2132 11.9684 29.0792 12.0825L26.3186 14.4305C26.1225 14.5975 25.9649 14.8052 25.8569 15.0392C25.7489 15.2733 25.6929 15.528 25.6929 15.7859C25.6929 16.0438 25.7489 16.2986 25.8569 16.5326C25.9649 16.7667 26.1225 16.9744 26.3186 17.1414L29.0792 19.4894C29.2132 19.6034 29.3103 19.7547 29.3584 19.9241C29.4064 20.0936 29.4032 20.2734 29.3491 20.441C28.6936 22.4703 27.6166 24.3375 26.189 25.9197C26.0709 26.0504 25.9168 26.143 25.7461 26.1858C25.5754 26.2286 25.3959 26.2195 25.2303 26.1598L21.8252 24.9396C21.5828 24.8529 21.3245 24.82 21.0682 24.8432C20.8118 24.8665 20.5636 24.9453 20.3406 25.0743C20.1177 25.2032 19.9255 25.3792 19.7772 25.59C19.6289 25.8008 19.5281 26.0413 19.4818 26.295L18.8303 29.8651C18.7987 30.0382 18.7166 30.1981 18.5943 30.3244C18.472 30.4508 18.315 30.5379 18.1432 30.5748C16.0628 31.0189 13.9124 31.0189 11.832 30.5748C11.6596 30.5381 11.5021 30.4508 11.3794 30.3241C11.2568 30.1974 11.1745 30.037 11.1431 29.8633L10.4951 26.295C10.4489 26.0413 10.3481 25.8008 10.1998 25.59C10.0515 25.3792 9.85923 25.2032 9.6363 25.0743C9.41338 24.9453 9.16515 24.8665 8.9088 24.8432C8.65245 24.82 8.39412 24.8529 8.15171 24.9396L4.74487 26.1598C4.57938 26.2189 4.40011 26.2275 4.22977 26.1844C4.05943 26.1413 3.90567 26.0486 3.78797 25.9179C2.36051 24.3363 1.28352 22.4697 0.627894 20.441C0.573775 20.2734 0.570531 20.0936 0.618571 19.9241C0.666612 19.7547 0.763774 19.6034 0.897743 19.4894L3.65837 17.1414C3.85448 16.9744 4.01201 16.7667 4.12004 16.5326C4.22808 16.2986 4.28403 16.0438 4.28403 15.7859C4.28403 15.528 4.22808 15.2733 4.12004 15.0392C4.01201 14.8052 3.85448 14.5975 3.65837 14.4305L0.897743 12.0825C0.763774 11.9684 0.666612 11.8171 0.618571 11.6477C0.570531 11.4783 0.573775 11.2984 0.627894 11.1308H0.626118ZM2.50974 11.1201L4.807 13.0733C5.19983 13.4072 5.51542 13.8228 5.73187 14.2913C5.94831 14.7597 6.06042 15.2697 6.06042 15.7859C6.06042 16.3021 5.94831 16.8121 5.73187 17.2805C5.51542 17.749 5.19983 18.1646 4.807 18.4986L2.50974 20.4517C3.02813 21.8427 3.77732 23.1377 4.72001 24.2797L7.55343 23.2657C8.03836 23.0923 8.55515 23.0266 9.06796 23.0732C9.58076 23.1198 10.0773 23.2776 10.5232 23.5357C10.9691 23.7937 11.3536 24.1459 11.6501 24.5677C11.9466 24.9895 12.148 25.4709 12.2403 25.9784L12.7818 28.9454C14.2422 29.1894 15.7329 29.1894 17.1934 28.9454L17.7349 25.9749C17.8274 25.4675 18.029 24.9863 18.3256 24.5647C18.6222 24.1431 19.0067 23.7912 19.4526 23.5333C19.8984 23.2754 20.3949 23.1178 20.9076 23.0713C21.4203 23.0248 21.9369 23.0905 22.4218 23.264L25.2569 24.2797C26.2014 23.1359 26.9484 21.8421 27.4672 20.4517L25.17 18.4986C24.7766 18.1649 24.4605 17.7494 24.2437 17.281C24.0269 16.8125 23.9146 16.3023 23.9146 15.7859C23.9146 15.2695 24.0269 14.7593 24.2437 14.2909C24.4605 13.8224 24.7766 13.4069 25.17 13.0733L27.4672 11.1201C26.9484 9.72968 26.2014 8.43587 25.2569 7.29217L22.4235 8.30608C21.9387 8.47954 21.4221 8.54529 20.9094 8.49879C20.3967 8.45228 19.9002 8.29463 19.4543 8.03675C19.0085 7.77888 18.624 7.42695 18.3274 7.00536C18.0308 6.58377 17.8292 6.1026 17.7367 5.5952L17.1934 2.62639C15.7329 2.3824 14.2422 2.3824 12.7818 2.62639L12.2421 5.5952C12.1497 6.10275 11.9483 6.58412 11.6518 7.00592C11.3553 7.42772 10.9708 7.77986 10.525 8.03792C10.0791 8.29598 9.58254 8.45379 9.06973 8.5004C8.55693 8.54701 8.04014 8.48131 7.5552 8.30786L4.72001 7.29217C3.77559 8.43589 3.02855 9.7297 2.50974 11.1201V11.1201ZM10.5502 15.7859C10.5502 14.6065 11.0178 13.4754 11.8501 12.6414C12.6825 11.8074 13.8114 11.3389 14.9885 11.3389C16.1656 11.3389 17.2945 11.8074 18.1268 12.6414C18.9592 13.4754 19.4268 14.6065 19.4268 15.7859C19.4268 16.9653 18.9592 18.0964 18.1268 18.9304C17.2945 19.7644 16.1656 20.2329 14.9885 20.2329C13.8114 20.2329 12.6825 19.7644 11.8501 18.9304C11.0178 18.0964 10.5502 16.9653 10.5502 15.7859ZM12.3255 15.7859C12.3255 16.4936 12.6061 17.1722 13.1055 17.6726C13.6049 18.173 14.2822 18.4541 14.9885 18.4541C15.6947 18.4541 16.3721 18.173 16.8715 17.6726C17.3709 17.1722 17.6515 16.4936 17.6515 15.7859C17.6515 15.0783 17.3709 14.3996 16.8715 13.8992C16.3721 13.3988 15.6947 13.1177 14.9885 13.1177C14.2822 13.1177 13.6049 13.3988 13.1055 13.8992C12.6061 14.3996 12.3255 15.0783 12.3255 15.7859V15.7859Z" fill="#637989"/>
</g>
<defs>
<clipPath id="clip0">
<rect width="29.4878" height="31" fill="white"/>
</clipPath>
</defs>
</svg>
