<svg width="160" height="160" viewBox="0 0 160 160" fill="none" xmlns="http://www.w3.org/2000/svg">
<path d="M88.0004 56C107.72 56 118.904 68.592 120.528 83.792H121.024C133.712 83.792 144 93.688 144 105.896C144 118.104 133.712 128 121.024 128H54.9764C42.2884 128 32.0004 118.104 32.0004 105.896C32.0004 94.136 41.5364 84.528 53.5764 83.832L55.4724 83.792C57.1124 68.488 68.2804 56 88.0004 56ZM46.7444 24C52.0836 24.2896 57.2784 25.8384 61.9044 28.52C65.7665 30.7423 69.1527 33.7042 71.8693 37.2361C74.5859 40.7681 76.5796 44.8009 77.7364 49.104C63.9444 52.144 54.0324 61.424 49.9844 74.232L49.4724 76L49.1044 77.496L47.7844 77.736C40.8119 79.1675 34.5745 83.0291 30.1844 88.632C24.8376 86.077 20.2534 82.1658 16.8884 77.288C16.4527 76.6534 16.1685 75.9273 16.0575 75.1656C15.9465 74.4038 16.0117 73.6268 16.2482 72.8943C16.4846 72.1617 16.886 71.4932 17.4214 70.9401C17.9568 70.387 18.6119 69.9641 19.3364 69.704C30.3444 65.768 36.2724 61.336 39.6564 54.856C43.3604 47.792 44.0484 40.296 41.5924 30.216C40.7924 26.944 43.3764 23.824 46.7444 24.008V24Z" fill="url(#paint0_linear)"/>
<defs>
<linearGradient id="paint0_linear" x1="37.8619" y1="42.8026" x2="97.4344" y2="111.532" gradientUnits="userSpaceOnUse">
<stop offset="0.10243" stop-color="#28C2D1"/>
<stop offset="0.925347" stop-color="#4931DE"/>
</linearGradient>
</defs>
</svg>
