<svg width="43" height="37" viewBox="0 0 43 37" fill="none" xmlns="http://www.w3.org/2000/svg">
<path d="M13.1598 18.499H1.34369C0.604661 18.499 0 19.0937 0 19.8205V22.4637C0 23.1906 0.604661 23.7853 1.34369 23.7853H13.2858C14.621 23.7853 15.8724 24.6856 16.0907 25.9824C16.3678 27.6344 15.0745 29.0716 13.4369 29.0716C12.2528 29.0716 11.245 28.3117 10.8839 27.2627C10.7075 26.7423 10.1617 26.4284 9.6074 26.4284H6.85283C6.02982 26.4284 5.36637 27.1553 5.51753 27.9482C6.23977 31.5908 9.51502 34.3579 13.4285 34.3579C18.2238 34.3579 22.0533 30.2197 21.4235 25.3877C20.9112 21.3899 17.2496 18.499 13.1598 18.499ZM1.34369 15.8558H29.5612C34.5749 15.8558 38.5304 11.3294 37.4386 6.21653C36.8004 3.22646 34.3397 0.806321 31.2996 0.178571C26.6471 -0.779574 22.4732 2.23528 21.6502 6.41477C21.4907 7.20772 22.1625 7.92633 22.9771 7.92633H25.7317C26.2944 7.92633 26.8318 7.61245 27.0082 7.09208C27.3693 6.04308 28.3771 5.28317 29.5612 5.28317C31.1904 5.28317 32.4921 6.72039 32.215 8.37236C31.9967 9.66916 30.7537 10.5695 29.4101 10.5695H1.34369C0.604661 10.5695 0 11.1642 0 11.8911V14.5342C0 15.2611 0.604661 15.8558 1.34369 15.8558ZM33.5923 18.499H20.4661C22.0869 19.8701 23.2543 21.7038 23.8085 23.7853H33.5923C35.8178 23.7853 37.6234 25.5611 37.6234 27.75C37.6234 29.9389 35.8178 31.7147 33.5923 31.7147C32.089 31.7147 30.7957 30.897 30.0987 29.6993C29.8552 29.2863 29.3681 29.0716 28.881 29.0716H26.0424C25.127 29.0716 24.4468 29.9637 24.7575 30.8144C26.2524 34.9939 30.6782 37.8188 35.6246 36.7863C39.0846 36.0677 41.9316 33.3502 42.7378 29.9554C44.1739 23.9092 39.5129 18.499 33.5923 18.499Z" fill="url(#paint0_linear)"/>
<defs>
<linearGradient id="paint0_linear" x1="7.34285" y1="6.68938" x2="28.6756" y2="29.93" gradientUnits="userSpaceOnUse">
<stop offset="0.10243" stop-color="#28C2D1"/>
<stop offset="0.925347" stop-color="#4931DE"/>
</linearGradient>
</defs>
</svg>
