<?xml version="1.0" encoding="UTF-8" standalone="no"?>
<!DOCTYPE svg PUBLIC "-//W3C//DTD SVG 1.1//EN" "http://www.w3.org/Graphics/SVG/1.1/DTD/svg11.dtd">
<svg width="400" height="400" viewBox="0 0 400 400" fill="none" xmlns="http://www.w3.org/2000/svg">
<path d="M214.5 164.114C249.696 164.114 269.658 186.589 272.557 213.718H273.442C296.088 213.718 314.45 231.381 314.45 253.17C314.45 274.959 296.088 292.622 273.442 292.622H155.557C132.912 292.622 114.549 274.959 114.549 253.17C114.549 232.181 131.569 215.032 153.059 213.79L156.443 213.718C159.37 186.403 179.303 164.114 214.5 164.114ZM140.865 107C150.394 107.517 159.666 110.281 167.923 115.067C174.816 119.034 180.86 124.32 185.708 130.624C190.557 136.928 194.115 144.126 196.18 151.806C171.564 157.232 153.873 173.795 146.648 196.655L145.734 199.811L145.077 202.481L142.721 202.91C130.276 205.465 119.144 212.357 111.308 222.357C101.765 217.797 93.5829 210.816 87.577 202.11C86.7994 200.977 86.292 199.681 86.0939 198.322C85.8958 196.962 86.0122 195.575 86.4342 194.268C86.8563 192.96 87.5726 191.767 88.5282 190.78C89.4838 189.793 90.6531 189.038 91.9462 188.574C111.594 181.549 122.174 173.638 128.214 162.073C134.825 149.465 136.053 136.086 131.669 118.094C130.241 112.255 134.853 106.686 140.865 107.014V107Z" fill="white"/>
</svg>

